<svg width="87" height="87" viewBox="0 0 87 87" fill="none" xmlns="http://www.w3.org/2000/svg">
<circle cx="43.5" cy="43.5" r="43" stroke="white"/>
<g clip-path="url(#clip0_18_1828)">
<path d="M38.9884 19.9354C34.8634 20.8208 30.9317 22.8077 28.2032 25.3776C27.086 26.4359 26.8712 27.1917 27.6016 27.5805C28.1173 27.8612 28.1173 27.8612 30.1798 26.1767C32.8653 23.9955 35.6153 22.6349 39.0313 21.8143C41.4161 21.2312 46.0352 21.296 48.4415 21.9438C57.336 24.3194 63.3731 31.3598 64.4473 40.5814C64.5548 41.6396 64.5333 41.834 64.2325 41.834C63.6094 41.834 62.2344 42.6762 61.5899 43.4537C60.7305 44.5335 60.4727 45.5269 60.4727 47.9241C60.4727 49.5006 60.3868 50.0621 60.1505 50.2565C59.7637 50.5805 59.7423 51.1636 60.086 51.5091C60.2364 51.6603 60.752 51.7682 61.2676 51.7682H62.1915V53.9927C62.1915 56.2819 62.3419 56.7354 63.0723 56.7354C63.9102 56.7354 64.1251 56.1523 64.1251 53.9063V51.7682H65.5216H66.918V53.9063C66.918 56.1523 67.1329 56.7354 67.9708 56.7354C68.7012 56.7354 68.8516 56.2819 68.8516 54.0143V51.7898L69.8829 51.7251C70.8282 51.6603 70.8926 51.6171 70.9571 51.034C71.0001 50.6884 70.9356 50.3213 70.8067 50.1917C70.6778 50.0621 70.5704 49.0471 70.5704 47.7945C70.5704 45.4621 70.2051 44.2312 69.2169 43.1729C68.6798 42.5898 67.3262 41.834 66.8321 41.834C66.6387 41.834 66.4669 41.5748 66.4024 41.1213C65.9512 37.7955 65.7364 36.7589 65.2637 35.3551C64.6407 33.4114 63.6524 31.3814 62.5137 29.6321C61.461 27.9908 57.9591 24.449 56.3692 23.4124C53.6622 21.6415 50.1817 20.2593 47.3673 19.8058C45.3907 19.5035 40.6426 19.5683 38.9884 19.9354ZM67.3048 44.1448C68.3145 44.879 68.6368 45.8293 68.6368 48.0321V50.0405H65.3926H62.1485L62.2344 47.8809C62.3204 45.5053 62.5567 44.987 63.9317 44.0368C64.5118 43.6265 64.8555 43.5401 65.6934 43.6265C66.2735 43.6697 67.004 43.9072 67.3048 44.1448Z" fill="white"/>
<path d="M43.9726 23.9523C43.7148 24.2978 31.7695 44.2744 31.3398 45.1166C31.1035 45.5701 31.082 45.8293 31.2539 46.1532C31.5547 46.7147 31.8769 46.7147 38.8379 46.1316C41.8886 45.8725 44.4238 45.6997 44.4668 45.7429C44.5097 45.7861 43.8222 49.0255 42.9414 52.9344C42.0605 56.8434 41.3515 60.2556 41.3515 60.5363C41.3515 61.1626 41.8672 61.5729 42.4687 61.4002C42.9629 61.2706 43.3066 60.7091 53.8769 43.1945C56.0039 39.7175 56.2187 39.0481 55.4453 38.7457C55.2734 38.6809 52.3086 38.8537 48.8496 39.156C45.3906 39.4368 42.5332 39.6528 42.5117 39.6096C42.4687 39.588 43.1777 36.1758 44.0586 32.0509C45.7558 24.0819 45.7773 23.6931 44.7031 23.6931C44.4238 23.6931 44.1015 23.8227 43.9726 23.9523ZM41.3515 35.4631C40.75 38.1842 40.2773 40.5814 40.2773 40.7758C40.2773 41.7044 40.6425 41.726 46.873 41.2077C50.1172 40.9485 52.8242 40.7542 52.8672 40.819C52.9316 40.8837 51.1269 43.9936 48.8496 47.7513C46.5722 51.5091 44.6816 54.5326 44.6386 54.4894C44.5957 54.4462 45.0468 52.2434 45.6484 49.587C46.25 46.9307 46.6797 44.5335 46.6152 44.2528C46.4648 43.6481 46.2929 43.6481 39.6328 44.2096C36.8613 44.4471 34.4121 44.6415 34.2187 44.6415C33.9609 44.6415 35.0351 42.6762 38.0859 37.5363C40.4062 33.6274 42.3398 30.4528 42.3613 30.4744C42.4043 30.5175 41.9316 32.742 41.3515 35.4631Z" fill="white"/>
<path d="M23.2188 28.7898C22.961 29.049 22.8751 29.6105 22.8751 31.2734V33.4114H21.4786H20.0821V31.4462C20.0821 29.2866 19.8673 28.6603 19.1583 28.6603C18.2989 28.6603 18.1485 29.049 18.1485 31.2734V33.3898L17.1387 33.4546C16.1719 33.5194 16.1075 33.5626 16.043 34.1457C16.0001 34.4913 16.0645 34.8584 16.1934 34.988C16.3223 35.1175 16.4298 36.1326 16.4298 37.3851C16.4298 39.7175 16.795 40.9485 17.7833 42.0067C18.3204 42.5898 19.6739 43.3457 20.168 43.3457C20.3614 43.3457 20.5333 43.6049 20.5977 44.0368C21.0274 47.2114 21.2637 48.3776 21.7149 49.7814C23.9923 56.8002 29.5782 62.372 36.5177 64.5748C39.2462 65.4387 41.2012 65.6546 44.6387 65.5251C48.1622 65.3955 50.3966 64.8556 53.2969 63.4518C56.4766 61.9185 59.6134 59.4997 59.6134 58.5927C59.6134 58.0312 59.2266 57.5992 58.7325 57.5992C58.5391 57.5992 57.6368 58.2255 56.7344 58.9814C48.6778 65.7194 36.8829 65.3091 29.2559 58.0312C28.2032 57.0377 26.9141 55.6124 26.3985 54.8781C24.4649 52.157 22.9395 48.0969 22.5528 44.6199C22.4239 43.4105 22.4239 43.4105 23.0255 43.2809C23.9278 43.1082 25.045 42.2659 25.7755 41.2077C26.3985 40.3222 26.42 40.1711 26.5059 37.7307C26.5489 35.8734 26.6563 35.0959 26.8712 34.9016C27.2364 34.5992 27.2579 34.0161 26.9141 33.6706C26.7637 33.5194 26.2481 33.4114 25.7325 33.4114H24.8087V31.187C24.8087 28.8978 24.6583 28.4443 23.9278 28.4443C23.713 28.4443 23.3907 28.5955 23.2188 28.7898ZM24.5938 37.234C24.5938 38.9617 24.5079 39.48 24.1641 40.0631C22.9395 42.0715 20.168 42.1147 18.8575 40.1279C18.4278 39.48 18.3634 39.1128 18.3634 37.2772V35.1391H21.4786H24.5938V37.234Z" fill="white"/>
</g>
<defs>
<clipPath id="clip0_18_1828">
<rect width="55" height="46" fill="white" transform="translate(16 19.5898)"/>
</clipPath>
</defs>
</svg>
