<svg width="87" height="87" viewBox="0 0 87 87" fill="none" xmlns="http://www.w3.org/2000/svg">
<circle cx="43.5" cy="43.5" r="43" stroke="white"/>
<path d="M59.3077 16.3891C59.1873 16.4984 59.0452 16.75 59.0123 16.9359C58.9467 17.2641 59.0014 17.3516 59.7342 18.1172L60.5327 18.9375H52.9311C44.9467 18.9375 44.4655 18.9594 42.7811 19.4516C40.8452 20.0094 38.6358 21.3437 37.1155 22.8641C33.7248 26.2547 32.4014 31.0781 33.5827 35.7266C33.9764 37.2359 34.7967 39.0297 35.6608 40.2109C36.6342 41.5453 38.2748 43.0656 39.6748 43.9516C39.8389 44.05 39.1061 44.0828 36.2733 44.0828L32.6748 44.0937L33.4077 43.35C33.9873 42.7703 34.1405 42.5406 34.1405 42.2781C34.1405 41.5891 33.4842 41.1844 32.8608 41.5125C32.6967 41.6 31.8983 42.3328 31.0998 43.1422C29.1639 45.1 29.153 44.8703 31.2748 46.9703C33.0248 48.6984 33.1889 48.7859 33.7467 48.3484C33.9655 48.1844 34.0311 48.0312 34.0311 47.725C34.0311 47.375 33.9327 47.2328 33.2983 46.5875L32.5655 45.8437H40.0467C45.9967 45.8437 47.7577 45.8109 48.578 45.6906C52.7561 45.0562 56.3873 42.4859 58.4108 38.7125C60.8827 34.1516 60.4452 28.5078 57.317 24.2859C56.628 23.3453 55.0748 21.8687 54.1233 21.2453C53.7186 20.9719 53.3905 20.7422 53.3905 20.7203C53.3905 20.6984 54.9764 20.6875 56.9123 20.6875H60.4342L59.7342 21.3984C59.1436 21.9891 59.0342 22.1641 59.0342 22.4812C59.0342 23.1594 59.6139 23.5312 60.2483 23.2578C60.4123 23.1812 61.2108 22.4594 62.0092 21.65C63.967 19.6594 63.967 19.8562 61.8889 17.7672C60.4561 16.3344 60.2811 16.2031 59.9311 16.2031C59.7123 16.2031 59.4389 16.2906 59.3077 16.3891ZM45.8436 21.1687C45.8436 21.6828 45.8873 21.7922 46.128 21.9891C46.5217 22.2953 46.992 22.2844 47.3202 21.9453C47.5389 21.7375 47.5936 21.5734 47.5936 21.125C47.5936 20.4797 47.5608 20.4906 48.9061 20.7531C49.8248 20.9281 51.5967 21.5078 51.6952 21.6719C51.728 21.7266 51.6514 21.9344 51.5311 22.1312C51.0717 22.8969 51.4545 23.6844 52.2748 23.6187C52.6139 23.5969 52.7342 23.4984 53.0514 23.0719C53.3905 22.6234 53.4561 22.5797 53.653 22.6781C53.9483 22.8312 56.1577 25.0516 56.3217 25.3578C56.442 25.5656 56.4092 25.6203 56.0592 25.8281C55.5123 26.1781 55.3155 26.5062 55.403 26.9766C55.4577 27.25 55.567 27.4031 55.7967 27.5234C56.2123 27.7312 56.3217 27.7312 56.8248 27.4687C57.0655 27.3594 57.2842 27.2828 57.3389 27.3047C57.503 27.4141 58.1045 29.2625 58.2577 30.1703C58.4873 31.4719 58.5092 31.4062 57.8748 31.4062C57.4264 31.4062 57.2623 31.4609 57.0545 31.6797C56.7155 32.0078 56.7045 32.4781 57.0108 32.8719C57.2077 33.1125 57.317 33.1562 57.8311 33.1562C58.5202 33.1562 58.5092 33.1234 58.2577 34.4359C58.0717 35.3875 57.6123 36.8531 57.4045 37.1375C57.2733 37.3234 57.2295 37.3125 56.803 37.0937C56.278 36.8203 55.928 36.8531 55.578 37.225C55.1186 37.7281 55.3483 38.3844 56.1248 38.7891C56.4639 38.9641 56.4639 38.9641 56.278 39.2594C55.8733 39.8937 55.0639 40.7469 54.2764 41.3812C53.3577 42.1141 53.4889 42.125 52.9202 41.3047C52.767 41.0859 52.6358 41.0312 52.253 41.0312C51.4545 41.0312 51.1264 41.6656 51.5311 42.4422L51.7608 42.9016L51.1264 43.175C50.3608 43.5141 49.1577 43.8312 48.2608 43.9406L47.5936 44.0172V43.4594C47.5936 42.7922 47.3639 42.475 46.8061 42.3875C46.478 42.3328 46.3577 42.3656 46.128 42.5953C45.8983 42.825 45.8436 42.9891 45.8436 43.4484V44.0172L45.1655 43.9406C44.2905 43.8422 43.3498 43.6016 42.453 43.2516C42.0592 43.0984 41.7202 42.9562 41.6983 42.9344C41.6655 42.9016 41.753 42.6937 41.8842 42.4641C42.0155 42.2344 42.1248 41.9281 42.1248 41.7969C42.1248 41.4578 41.5561 40.9219 41.1952 40.9219C40.8998 40.9219 40.353 41.3922 40.0905 41.8516C39.9811 42.0484 39.9264 42.0266 39.1827 41.4359C38.4498 40.8453 36.9842 39.2484 36.9842 39.0516C36.9842 38.9969 37.1155 38.8875 37.2905 38.8C37.9905 38.4391 38.242 37.6844 37.8045 37.2031C37.5639 36.9406 36.8092 36.8969 36.4811 37.1484C36.3717 37.2359 36.2186 37.3125 36.1639 37.3125C35.8905 37.3125 35.0264 34.3922 35.0155 33.4516C35.0155 33.1672 35.0373 33.1562 35.5623 33.1562C36.0108 33.1562 36.1748 33.1016 36.4045 32.8719C36.6342 32.6422 36.667 32.5219 36.6123 32.1937C36.5248 31.6359 36.2077 31.4062 35.5405 31.4062H34.9827L35.0592 30.7391C35.1686 29.8422 35.4858 28.6391 35.8248 27.8734L36.0983 27.2391L36.5358 27.4687C36.7764 27.5891 37.0498 27.6875 37.1373 27.6875C37.9905 27.6875 38.3733 26.5609 37.6842 26.0797C37.5311 25.9703 37.3014 25.8062 37.1702 25.7078L36.9405 25.5219L37.5748 24.7453C38.1655 24.0344 39.3795 22.9078 39.8498 22.6453C39.992 22.5687 40.0795 22.6344 40.2764 22.9734C40.6483 23.6406 41.217 23.8156 41.7311 23.4109C42.0702 23.1375 42.1248 22.4812 41.8295 22.0328C41.6545 21.7703 41.6545 21.7484 41.8514 21.6062C42.2889 21.2781 44.6952 20.6219 45.5483 20.5891C45.8327 20.5781 45.8436 20.6 45.8436 21.1687Z" fill="white"/>
<path d="M45.9641 25.4563C45.8109 25.6531 45.7344 25.9047 45.7344 26.2109C45.7344 26.6266 45.7016 26.6922 45.45 26.7469C44.6406 26.9547 43.6891 27.95 43.4266 28.8688C43.35 29.1313 43.3172 29.6781 43.35 30.1375C43.4156 31.0781 43.7 31.6797 44.4328 32.325C45.0016 32.85 45.4391 33.025 46.4125 33.1563C47.2219 33.2547 47.5719 33.4406 47.9547 33.9438C48.4031 34.5453 48.1297 35.5734 47.375 36.0766C46.4344 36.7219 45.2312 36.0438 45.0344 34.7641C44.925 34.1406 44.7062 33.9219 44.1484 33.9219C43.5031 33.9219 43.3281 34.1516 43.3281 34.9719C43.3281 36.1313 44.1047 37.2578 45.2531 37.7719C45.6906 37.9578 45.7344 38.0125 45.7344 38.3625C45.7344 38.7563 45.8984 39.1609 46.1062 39.3031C46.1719 39.3469 46.4125 39.3906 46.6422 39.3906C47.2109 39.3906 47.4844 39.0953 47.4844 38.4609C47.4844 37.9797 47.4953 37.9688 48.0094 37.75C50.0547 36.8641 50.6016 34.0859 49.0375 32.4672C48.4687 31.8766 47.7141 31.5156 46.8828 31.4391C46.5 31.4063 46.0297 31.2859 45.8437 31.1766C45.1219 30.7281 44.8594 29.7328 45.2969 29.0328C46.1062 27.6984 47.9984 28.1797 48.2062 29.7656C48.2828 30.3781 48.5234 30.6516 48.9828 30.6625C49.8141 30.6844 50.1094 30.2469 49.9016 29.2516C49.6828 28.125 48.8187 27.0641 47.9 26.7906C47.4953 26.6703 47.4844 26.6594 47.4844 26.1563C47.4844 25.5109 47.1672 25.1719 46.5875 25.1719C46.2812 25.1719 46.1281 25.2484 45.9641 25.4563Z" fill="white"/>
<path d="M19.4187 49.0594C19.2328 49.1469 19.0469 49.3 19.0031 49.4094C18.8828 49.6937 16.6406 66.8875 16.6406 67.4672C16.6406 68.0688 16.925 68.375 17.4828 68.375C17.7125 68.375 19.6703 68.2 21.8359 67.9813C24.9859 67.675 25.8281 67.5547 26.0469 67.4016C26.3094 67.2047 26.3203 67.1609 26.3531 65.7609C26.3641 64.9734 26.3969 64.3281 26.4078 64.3281C26.4297 64.3281 30.9141 65.5422 36.3828 67.0188L46.3359 69.7203L47.8125 69.7313C49.475 69.7422 50.4047 69.5453 51.6734 68.9109C52.6469 68.4188 67.675 58.3016 68.2766 57.7328C68.8781 57.1641 69.1734 56.6281 69.3594 55.7641C69.6875 54.1672 68.8125 52.4281 67.3141 51.6625C66.3625 51.1703 64.8531 51.1484 63.9672 51.6078C63.3328 51.9359 54.6484 57.5687 54.5062 57.7437C54.2766 58.0391 54.3422 58.6187 54.6484 58.9141C54.9328 59.2094 55.2391 59.2531 55.6109 59.0672C55.7422 59.0016 57.8641 57.6344 60.325 56.0375C64.6781 53.2047 64.8094 53.1281 65.4219 53.0844C66.2203 53.0297 66.8547 53.3469 67.2266 53.9922C67.7516 54.9109 67.6641 55.7422 66.975 56.4531C66.4391 57 51.4547 67.1172 50.6016 67.5C49.6281 67.9484 48.8625 68.0797 47.6922 68.025C46.7844 67.9703 45.6031 67.675 37.1484 65.3781C31.9203 63.9453 27.3703 62.7094 27.0641 62.6109L26.4844 62.4578V58.4328V54.4078L27.9937 54.3422C30.575 54.2219 32.6859 53.7734 34.9937 52.8437C36.6453 52.1766 37.4984 52.0562 38.6031 52.3406C38.9859 52.4391 41.6656 53.5328 44.5641 54.7687C50.4812 57.2844 50.5469 57.3281 50.5469 58.2687C50.5469 58.7172 50.4922 58.8266 50.1203 59.1984C49.7594 59.5594 49.6281 59.625 49.2234 59.625C48.9609 59.625 46.5766 59.2312 43.9297 58.7609C39.2156 57.9078 39.1062 57.8969 38.7344 58.0719C38.5047 58.1922 38.3297 58.3672 38.2859 58.5422C38.1875 58.9141 38.4391 59.4937 38.7562 59.6141C38.8984 59.6797 41.2719 60.1281 44.0391 60.6203C48.7422 61.4516 49.1141 61.5062 49.7156 61.3859C50.5578 61.2328 51.2578 60.7953 51.7062 60.1391C52.5703 58.8812 52.3953 57.175 51.2906 56.0484C50.8859 55.6328 50.2844 55.3484 45.3625 53.2375C42.3437 51.9469 39.6312 50.8203 39.3141 50.7328C37.7281 50.2625 36.3828 50.3937 34.2281 51.2031C31.8766 52.0891 29.2406 52.625 27.25 52.625H26.375V51.0062C26.375 49.4859 26.3641 49.3656 26.1453 49.1687C25.9266 48.9719 25.6859 48.9609 22.8312 48.9391C20.4141 48.9172 19.6812 48.9391 19.4187 49.0594ZM24.6031 58.3891L24.5703 66.0234L21.5078 66.2969L18.4453 66.5703L19.5062 58.6953C20.0969 54.3641 20.5781 50.8094 20.5781 50.7875C20.5781 50.7766 21.4859 50.7656 22.6016 50.7656H24.625L24.6031 58.3891Z" fill="white"/>
</svg>
