<svg width="87" height="87" viewBox="0 0 87 87" fill="none" xmlns="http://www.w3.org/2000/svg">
<g clip-path="url(#clip0_20_1836)">
<circle cx="43.5" cy="44.5" r="43" stroke="white"/>
<path d="M24.6172 18.325C23.7641 18.7516 17.6704 24.8656 17.3047 25.6375C16.9188 26.45 16.9188 28.1766 17.2844 29.0297C17.4469 29.3953 20.6563 32.7672 24.4954 36.5859L31.4219 43.4719L24.5157 50.3984C19.986 54.9484 17.5079 57.5891 17.3047 58.0766C16.9188 59.0313 16.9188 60.8594 17.3047 61.8344C17.7313 62.8297 23.9266 69.0656 25.0438 69.5938C25.9579 70.0406 27.786 70.1422 28.7204 69.7969C29.0251 69.675 32.4579 66.4047 36.3376 62.525L43.4063 55.4766L48.3219 60.3719L53.2579 65.2875L60.3672 67.6438C64.2876 68.9438 67.7001 70 68.0047 70C68.6547 70 69.0001 69.6547 69.0001 69.0047C69.0001 68.7 67.9438 65.2875 66.6438 61.3672L64.2876 54.2578L59.3719 49.3219L54.4766 44.4063L61.5251 37.3375C65.4047 33.4578 68.6751 30.025 68.7969 29.7203C69.1422 28.7859 69.0407 26.9578 68.5938 26.0437C68.0657 24.9266 61.8297 18.7312 60.8344 18.3047C59.8594 17.9187 58.0313 17.9187 57.0766 18.3047C56.5891 18.5078 53.9485 20.9859 49.3985 25.5156L42.4719 32.4219L35.586 25.4953C31.7672 21.6562 28.3954 18.4469 28.0297 18.2844C27.1563 17.8984 25.3688 17.9187 24.6172 18.325ZM29.1876 22.3672L31.3204 24.5L27.4001 28.4L23.5001 32.3203L21.3672 30.1875C18.4016 27.2219 18.3407 27.5469 22.4438 23.4437C26.5469 19.3406 26.2219 19.4016 29.1876 22.3672ZM63.3532 23.6469C68.0251 28.3187 68.1063 27.5063 62.3985 33.2344L58.0313 37.6016L56.1626 35.7125C54.761 34.3516 54.1313 33.8438 53.7454 33.8438C53.0751 33.8438 52.7501 34.1891 52.7501 34.9406C52.7501 35.4484 53.0751 35.8953 54.5782 37.3984L56.4063 39.2469L55.4922 40.1406L54.5985 41.0344L53.4813 39.9781C52.2626 38.8203 51.9376 38.7188 51.3282 39.3281C50.6985 39.9578 50.8407 40.4859 51.9376 41.6438L52.9329 42.7L52.0391 43.5938L51.1251 44.4875L49.236 42.6188C47.8547 41.2578 47.2251 40.75 46.8391 40.75C46.1688 40.75 45.8438 41.0953 45.8438 41.8469C45.8438 42.3547 46.1688 42.8016 47.6719 44.3047L49.5001 46.1531L48.586 47.0469L47.6922 47.9406L46.5751 46.8844C45.3563 45.7266 45.0313 45.625 44.4219 46.2344C43.7922 46.8641 43.9344 47.3922 45.0313 48.55L46.0266 49.6063L45.1329 50.5L44.2188 51.3938L42.3297 49.525C40.9485 48.1641 40.3188 47.6563 39.9329 47.6563C39.2626 47.6563 38.9376 48.0016 38.9376 48.7531C38.9376 49.2609 39.2626 49.7078 40.7657 51.2109L42.5938 53.0594L41.6797 53.9531L40.786 54.8469L39.6688 53.7906C38.4501 52.6328 38.1251 52.5313 37.5157 53.1406C36.886 53.7703 37.0282 54.2984 38.1251 55.4563L39.1204 56.5125L38.2266 57.4063L37.3126 58.3L35.4235 56.4313C34.0422 55.0703 33.4126 54.5625 33.0266 54.5625C32.3563 54.5625 32.0313 54.9078 32.0313 55.6594C32.0313 56.1672 32.3563 56.6141 33.8594 58.1172L35.6876 59.9656L34.7735 60.8594L33.8797 61.7531L32.7626 60.6969C31.5438 59.5391 31.2188 59.4375 30.6094 60.0469C29.9797 60.6766 30.1219 61.2047 31.2188 62.3625L32.2141 63.4188L31.3204 64.3125L30.4063 65.2063L28.5172 63.3375C27.136 61.9766 26.5063 61.4688 26.1204 61.4688C25.4501 61.4688 25.1251 61.8141 25.1251 62.5656C25.1251 63.0734 25.4501 63.5203 26.9735 65.0438L28.8219 66.8922L28.2735 67.3391C27.9079 67.6031 27.4204 67.7656 26.8922 67.7656C26.1001 67.7656 25.9376 67.6438 22.6469 64.3531C19.2547 60.9609 19.2344 60.9203 19.2344 60.0266V59.1328L38.6735 39.6938L58.1329 20.2344H59.0266C59.9204 20.2344 59.961 20.2547 63.3532 23.6469ZM31.2797 32.2594L27.3594 36.1797L26.2422 35.0625L25.1251 33.9453L29.0251 30.0453L32.9454 26.125L34.0626 27.2422L35.1797 28.3594L31.2797 32.2594ZM39.3438 35.5703L37.8204 37.0938L35.7891 35.0625L33.7579 33.0313L35.2813 31.5078L36.8047 29.9844L38.836 32.0156L40.8672 34.0469L39.3438 35.5703ZM34.1235 36.85L36.0938 38.8203L34.5704 40.3438L33.0469 41.8672L31.0157 39.8359L28.9844 37.8047L30.4469 36.3422C31.2594 35.5297 31.9704 34.8594 32.0313 34.8594C32.0922 34.8594 33.0266 35.7531 34.1235 36.85ZM60.0626 56.2891L58.5391 57.8125L54.1719 53.4453L49.8047 49.0781L51.3282 47.5547L52.8516 46.0313L57.2188 50.3984L61.586 54.7656L60.0626 56.2891ZM52.5063 55.2328L56.8126 59.5391L55.2891 61.0625L53.7657 62.5859L49.3985 58.2188L45.0313 53.8516L46.4938 52.3891C47.3063 51.5766 48.0172 50.9063 48.0782 50.9063C48.1391 50.9063 50.1297 52.8563 52.5063 55.2328ZM63.3532 58.6047L63.861 60.2094L61.5047 62.5453L59.1485 64.8813L57.6251 64.3734C56.7922 64.0891 56.061 63.8047 56.0001 63.7641C55.9188 63.6828 62.5204 57 62.7032 57C62.7641 57 63.0485 57.7313 63.3532 58.6047ZM65.4454 64.9219C65.8313 66.0797 66.1157 67.0547 66.0954 67.0953C66.0547 67.1156 65.0391 66.8313 63.8407 66.425L61.6469 65.6938L63.1297 64.1906C63.9422 63.3781 64.6329 62.7281 64.6735 62.7688C64.7141 62.8094 65.0594 63.7641 65.4454 64.9219Z" fill="white"/>
<path d="M57.5236 24.7844C55.1064 25.8609 54.6595 28.9688 56.6705 30.7359C57.9705 31.8734 59.9205 31.8734 61.2205 30.7359C62.5611 29.5578 62.8658 27.8922 62.033 26.3281C61.2205 24.7844 59.1283 24.0734 57.5236 24.7844ZM59.8595 27.1406C60.3876 27.6688 60.3673 28.3188 59.8189 28.9078C59.2501 29.5172 58.7423 29.4969 58.133 28.8672C57.5033 28.2578 57.5033 27.8109 58.072 27.2016C58.6001 26.6328 59.3111 26.5922 59.8595 27.1406Z" fill="white"/>
</g>
<circle cx="43.5" cy="43.5" r="43" stroke="white"/>
<defs>
<clipPath id="clip0_20_1836">
<rect width="52" height="52" fill="white" transform="translate(17 18)"/>
</clipPath>
</defs>
</svg>
