<svg width="87" height="87" viewBox="0 0 87 87" fill="none" xmlns="http://www.w3.org/2000/svg">
<circle cx="43.5" cy="43.5" r="43" stroke="white"/>
<path d="M55.9883 14.1766C54.0289 14.8984 51.657 16.8062 50.4453 18.7141L49.7234 19.7969L49.543 18.5852C49.2852 16.7805 48.6922 15.7234 47.532 14.95C46.5781 14.3055 46.2687 14.2539 44 14.2539C41.7312 14.2539 41.4219 14.3055 40.468 14.95C39.2562 15.7492 38.6375 16.9094 38.3797 18.9203L38.1992 20.3898L35.75 21.3953C34.4094 21.9625 32.9914 22.5555 32.6047 22.7102C31.9602 22.968 31.8055 22.9164 31.0578 22.1945C28.6859 19.9773 26.3398 20.0289 23.7875 22.375C21.0805 24.8758 20.8742 27.5828 23.1945 30.0578C23.9164 30.8055 23.968 30.9602 23.7102 31.6047C23.5555 31.9914 22.9883 33.332 22.4727 34.6211C21.9312 35.8844 21.4414 37.0187 21.3383 37.1219C21.2609 37.225 20.4875 37.3797 19.6367 37.457C17.7805 37.6633 16.6461 38.3078 15.8469 39.5969C15.3312 40.4219 15.2539 40.8859 15.2539 43.0258C15.2539 45.2687 15.3055 45.5781 15.95 46.532C16.7492 47.7437 17.832 48.3109 19.7141 48.5172C20.4875 48.5945 21.1836 48.7234 21.2867 48.8008C21.4156 48.8523 21.7508 49.6516 22.0859 50.5281C22.3953 51.4305 22.9367 52.6937 23.2719 53.3641C23.607 54.0344 23.8906 54.7047 23.8906 54.8594C23.8906 54.9883 23.4781 55.5555 22.9883 56.0969C20.9516 58.3656 21.0805 60.7117 23.375 63.2125C25.8758 65.9195 28.5828 66.1258 31.0578 63.8055C31.8055 63.0836 31.9602 63.032 32.6047 63.2898C32.9914 63.4445 34.4094 64.0375 35.75 64.6047L38.1992 65.6102L38.4055 67.2602C38.6375 69.1938 39.282 70.3539 40.5969 71.1531C41.4219 71.6688 41.8859 71.7461 44.0258 71.7461C46.2687 71.7461 46.5781 71.6945 47.532 71.05C48.7695 70.2508 49.4141 69.0133 49.5945 67.0539C49.7234 65.9453 49.8523 65.5844 50.2906 65.4297C50.6 65.3008 51.7859 64.8109 52.9719 64.3211L55.0859 63.4188V65.7648C55.0859 69.8383 56.5297 71.643 60.0102 71.8234C62.2273 71.9523 63.7227 71.3078 64.7797 69.7609L65.5273 68.7039L65.6047 52.307L65.6562 35.8844L66.5586 35.4203C67.0484 35.1625 67.9508 34.4406 68.5953 33.8219C74.0352 28.6141 73.2617 19.668 67.0227 15.3883C65.4758 14.3312 63.9289 13.8156 63.3102 14.125C62.8461 14.3828 62.8203 14.7695 62.8203 20.3125V26.2422L61.6086 26.8609L60.3711 27.4797L59.1594 26.8609L57.9219 26.2422V20.3125C57.9219 14.7437 57.8961 14.3828 57.432 14.125C57.1484 13.9961 56.8906 13.8672 56.8391 13.893C56.7875 13.893 56.4266 14.0219 55.9883 14.1766ZM46.0367 16.832C46.8875 17.2703 47.3516 18.3531 47.3516 19.9516C47.3516 20.725 47.532 21.2664 47.9703 21.782C48.5375 22.4523 48.5891 22.7617 48.5633 24.7211C48.5375 25.907 48.6148 27.2992 48.718 27.8148L48.8984 28.743L47.3 28.382C45.1086 27.8664 41.5766 28.0469 39.3594 28.8203C33.1461 30.9344 29.0469 36.5289 29.0469 42.8711C29.0469 48.0016 31.393 52.5391 35.4406 55.1945C41.2414 59.0359 48.3828 58.7781 53.6164 54.4984L55.0859 53.3125V57.025V60.7375L53.8742 61.3563C53.1781 61.7172 51.8375 62.2844 50.8578 62.6195C49.8266 62.9547 48.6922 63.5992 48.2023 64.0375C47.4805 64.7078 47.3516 65.0172 47.3516 65.9969C47.3516 68.5492 46.3977 69.5547 44 69.5547C41.6023 69.5547 40.6484 68.5492 40.6484 66.0484C40.6484 64.5789 39.7719 63.5477 37.993 62.9547C37.2453 62.7227 36.0078 62.207 35.2086 61.7945C33.5844 60.9953 32.1664 60.6602 31.2641 60.8922C30.9031 60.9695 30.0781 61.5109 29.4336 62.0781C27.732 63.5477 27.0617 63.4703 25.2828 61.7172C23.5297 59.9383 23.4523 59.268 24.9219 57.5664C25.4891 56.9219 26.0305 56.0969 26.1078 55.7359C26.3398 54.8336 26.0047 53.4156 25.2055 51.7914C24.793 50.9922 24.2773 49.7547 24.0453 49.007C23.4523 47.2281 22.4211 46.3516 20.9516 46.3516C18.4508 46.3516 17.4453 45.3977 17.4453 43C17.4453 40.6023 18.4508 39.6484 20.9516 39.6484C22.4211 39.6484 23.4523 38.7719 24.0453 36.993C24.2773 36.2453 24.793 35.0078 25.2055 34.2086C26.0047 32.5844 26.3398 31.1664 26.1078 30.2641C26.0305 29.9031 25.4891 29.0781 24.9219 28.4336C23.4523 26.732 23.5297 26.0617 25.2828 24.2828C27.0617 22.5297 27.732 22.4523 29.4336 23.9219C30.0781 24.4891 30.9031 25.0305 31.2641 25.1078C32.1664 25.3398 33.5844 25.0047 35.2086 24.2055C36.0078 23.793 37.2453 23.2773 37.993 23.0453C39.7719 22.4523 40.6484 21.4211 40.6484 19.9516C40.6484 18.4047 41.1125 17.2703 41.9117 16.832C42.7883 16.3422 45.1086 16.3422 46.0367 16.832ZM55.8594 27.8664C56.3492 28.3047 59.8297 29.8516 60.3711 29.8516C60.9125 29.8516 64.393 28.3047 64.8828 27.8664C64.9602 27.7891 65.0633 25.3141 65.1406 22.3234L65.2695 16.8836L66.7391 18.2242C71.5086 22.5812 70.7094 30.2641 65.1922 33.4609C64.3414 33.9508 63.568 34.5953 63.4906 34.8789C63.4133 35.1625 63.3359 42.6906 63.3359 51.6109V67.8016L62.4594 68.6781C61.7117 69.4258 61.4023 69.5547 60.3711 69.5547C59.3398 69.5547 59.0305 69.4258 58.2828 68.6781L57.4062 67.8016V51.6109C57.4062 42.6906 57.3289 35.1625 57.2516 34.8789C57.1742 34.5953 56.4008 33.9508 55.55 33.4609C52.6883 31.8367 50.9352 28.7945 50.9094 25.4945C50.8836 22.3234 51.8117 20.1836 54.1062 18.1211L55.4727 16.8836L55.6016 22.3234C55.6789 25.3141 55.782 27.7891 55.8594 27.8664ZM48.4859 31.1664C49.543 31.5789 50.4969 32.2234 51.6055 33.332C52.482 34.1828 53.6422 35.1109 54.1578 35.3945L55.0859 35.9102V42.5359V49.1617L53.8742 50.7602C51.0898 54.4211 46.3461 56.2516 41.8859 55.4008C35.6469 54.1891 31.3414 49.0328 31.3672 42.7937C31.393 37.3023 35.3633 32.3266 40.932 30.7539C42.9172 30.2125 46.5008 30.393 48.4859 31.1664Z" fill="white"/>
</svg>
