<svg width="87" height="87" viewBox="0 0 87 87" fill="none" xmlns="http://www.w3.org/2000/svg">
<circle cx="43.5" cy="43.5" r="43" stroke="white"/>
<path d="M40.9251 14.9C40.0001 15.525 39.9751 15.55 40.3501 16.125C40.5751 16.475 40.7501 16.775 40.7501 16.85C40.7501 16.9 40.1001 17.05 39.3251 17.15C33.9751 17.8 28.3501 20.65 24.3501 24.8C21.0501 28.2 19.2251 31.325 17.8501 35.9C16.9501 38.9 16.7251 44.825 17.3751 48.025C18.3751 52.975 20.5751 57.225 24.1001 60.925C27.5001 64.5 31.0251 66.675 35.9251 68.175C38.0001 68.8 38.4251 68.85 43.0001 68.85C47.5751 68.85 48.0001 68.8 50.0751 68.175C54.9751 66.675 58.5001 64.5 61.9001 60.925C65.4251 57.225 67.6251 52.975 68.6251 48.025C69.2751 44.825 69.0501 38.9 68.1501 35.875C65.8501 28.1 60.1751 21.775 52.9001 18.825C50.3001 17.775 50.1001 17.775 49.9001 18.875C49.8001 19.35 49.7001 19.825 49.6751 19.9C49.6501 19.975 50.3001 20.3 51.1501 20.6C56.6501 22.6 61.6501 27.025 64.2251 32.225C66.2501 36.275 66.8751 39.175 66.6751 43.925C66.5751 46.65 66.4251 47.825 65.9001 49.575C64.0501 55.8 59.8751 60.925 54.1751 64C50.5751 65.95 47.1001 66.775 42.7501 66.775C32.3751 66.75 23.1251 59.75 20.1001 49.625C19.5501 47.75 19.4251 46.75 19.3251 43.625C19.2251 40.2 19.2751 39.65 19.8501 37.375C21.6251 30.55 25.8501 25.175 32.0751 21.875C34.1251 20.775 37.3501 19.725 39.5751 19.4L40.7751 19.225L40.3751 19.825C40.0001 20.425 40.0001 20.475 40.6751 20.925C41.0501 21.2 41.5001 21.5 41.6501 21.575C42.0251 21.8 44.0001 18.775 44.0001 18C44.0001 17.55 42.1501 14.25 41.9001 14.25C41.8751 14.25 41.4501 14.55 40.9251 14.9Z" fill="white"/>
<path d="M45.8749 18.025C45.7749 18.575 45.7499 19.1 45.8249 19.175C45.8999 19.225 46.3999 19.35 46.9499 19.425L47.9499 19.55L48.1249 18.5C48.2249 17.925 48.2499 17.425 48.1999 17.4C48.1749 17.35 47.6499 17.25 47.0749 17.15L46.0499 17L45.8749 18.025Z" fill="white"/>
<path d="M38 23.5C32.45 24.95 27.625 28.825 25.125 33.875C23.55 37.025 23 39.4 23 43C23 46.65 23.55 49 25.175 52.25C26.175 54.275 26.725 54.975 28.875 57.125C31.025 59.275 31.725 59.825 33.75 60.825C37 62.45 39.35 63 43 63C46.65 63 49 62.45 52.25 60.825C54.275 59.825 54.975 59.275 57.125 57.125C59.275 54.975 59.825 54.275 60.825 52.25C62.45 49 63 46.65 63 43C63 39.375 62.45 37.05 60.85 33.75C59.825 31.7 59.325 31.025 57.15 28.85C54.975 26.675 54.3 26.175 52.25 25.15C48.9 23.525 46.625 23 42.9 23.025C40.75 23.025 39.325 23.175 38 23.5ZM46.625 25.55C50.15 26.3 53.425 28.175 55.925 30.85C57.825 32.85 59.025 34.825 59.925 37.375C60.575 39.225 60.625 39.65 60.625 43C60.625 46.425 60.575 46.75 59.85 48.775C58.9 51.475 57.225 54 55.125 55.95C45.6 64.875 30.475 61 26.05 48.525C25.425 46.8 25.375 46.3 25.375 43C25.375 39.65 25.425 39.225 26.075 37.375C29.125 28.75 37.95 23.675 46.625 25.55Z" fill="white"/>
<path d="M42 28V29H43H44V28V27H43H42V28Z" fill="white"/>
<path d="M34.9251 28.975C34.5501 29.225 34.1751 29.5 34.1001 29.575C33.9501 29.725 34.9251 31.5 35.1751 31.5C35.3751 31.5 37.0001 30.475 37.0001 30.375C37.0001 30.125 35.9251 28.5 35.8001 28.525C35.7001 28.525 35.3251 28.725 34.9251 28.975Z" fill="white"/>
<path d="M49.525 29.4C49.225 29.875 49 30.325 49 30.375C49 30.475 50.625 31.5 50.825 31.5C50.975 31.5 52 29.9 52 29.675C52 29.55 50.325 28.5 50.125 28.5C50.1 28.5 49.825 28.9 49.525 29.4Z" fill="white"/>
<path d="M41.95 37.15L41.875 42.3L37.325 44.95L32.75 47.575L33.3 48.525C33.6 49.075 33.9 49.5 33.975 49.5C34.05 49.5 36.325 48.225 39 46.675L43.875 43.85L43.95 37.925L44 32H43H42L41.95 37.15Z" fill="white"/>
<path d="M29.025 34.9C28.725 35.375 28.5 35.825 28.5 35.875C28.5 35.95 30.225 37 30.375 37C30.475 37 31.5 35.375 31.5 35.175C31.5 35.025 29.9 34 29.675 34C29.6 34 29.325 34.4 29.025 34.9Z" fill="white"/>
<path d="M55.4251 34.475C55.0501 34.725 54.6751 35 54.6001 35.075C54.4501 35.2 55.4251 37 55.6251 37C55.7751 37 57.5001 35.95 57.5001 35.875C57.5001 35.625 56.4251 34 56.3001 34.025C56.2001 34.025 55.8251 34.225 55.4251 34.475Z" fill="white"/>
<path d="M27 43V44H28H29V43V42H28H27V43Z" fill="white"/>
<path d="M57 43V44H58H59V43V42H58H57V43Z" fill="white"/>
<path d="M29.425 49.475C29.05 49.725 28.675 49.975 28.625 50.05C28.475 50.2 29.45 52 29.675 52C29.9 52 31.5 50.975 31.5 50.825C31.5 50.55 30.45 49 30.3 49.025C30.2 49.025 29.825 49.225 29.425 49.475Z" fill="white"/>
<path d="M55.025 49.85C54.725 50.3 54.5 50.75 54.5 50.825C54.5 50.975 56.1 52 56.325 52C56.45 52 57.5 50.325 57.5 50.125C57.5 50.05 55.775 49 55.625 49C55.575 49 55.3 49.375 55.025 49.85Z" fill="white"/>
<path d="M34.525 55.35C34.225 55.8 34 56.25 34 56.325C34 56.45 35.675 57.5 35.875 57.5C35.95 57.5 37 55.775 37 55.625C37 55.525 35.375 54.5 35.175 54.5C35.1 54.5 34.8 54.875 34.525 55.35Z" fill="white"/>
<path d="M49.825 55.025C49.375 55.325 49 55.6 49 55.625C49 55.775 50.05 57.5 50.125 57.5C50.325 57.5 52 56.45 52 56.325C52 56.075 50.95 54.5 50.8 54.5C50.7 54.5 50.25 54.75 49.825 55.025Z" fill="white"/>
<path d="M42 58V59H43H44V58V57H43H42V58Z" fill="white"/>
</svg>
