<svg width="87" height="87" viewBox="0 0 87 87" fill="none" xmlns="http://www.w3.org/2000/svg">
<circle cx="43.5" cy="43.5" r="43" stroke="white"/>
<g clip-path="url(#clip0_19_1831)">
<path d="M56.8358 20.3414C56.5483 20.8984 56.5843 62.2445 56.8897 62.6398C57.0874 62.9273 57.5366 62.9453 61.5077 62.9094L65.9101 62.8555V41.4727V20.0898L61.4718 20.0359C57.2312 20 57.0155 20.018 56.8358 20.3414ZM64.3827 41.4727V61.3281H61.4179H58.453V41.4727V21.6172H61.4179H64.3827V41.4727Z" fill="white"/>
<path d="M44.6529 26.325C44.3475 26.6305 44.3475 62.4242 44.6529 62.7297C44.8146 62.8914 46.0725 62.9453 49.217 62.9453C53.0084 62.9453 53.5834 62.9094 53.6732 62.6578C53.7271 62.4961 53.7811 54.3203 53.7811 44.4555C53.7811 30.7633 53.7271 26.4867 53.5654 26.325C53.26 26.0195 44.9584 26.0195 44.6529 26.325ZM52.1639 44.5273V61.3281H49.199H46.2342V44.5273V27.7266H49.199H52.1639V44.5273Z" fill="white"/>
<path d="M32.4344 32.4344C32.2727 32.5961 32.2188 36.1898 32.2188 47.5102C32.2188 55.6859 32.2727 62.4961 32.3266 62.6578C32.4164 62.9094 32.9914 62.9453 36.7828 62.9453C39.9273 62.9453 41.1852 62.8914 41.3469 62.7297C41.6523 62.4242 41.6523 32.7398 41.3469 32.4344C41.0414 32.1289 32.7398 32.1289 32.4344 32.4344ZM39.7656 47.582V61.3281H36.8008H33.8359V47.582V33.8359H36.8008H39.7656V47.582Z" fill="white"/>
<path d="M20.1975 38.5797C20.0537 38.7414 20.0178 42.1016 20.0358 50.8344L20.0897 62.8555L24.492 62.9094C28.4631 62.9453 28.9123 62.9273 29.11 62.6398C29.2897 62.4062 29.3436 59.7109 29.3436 50.6187C29.3436 40.1969 29.3076 38.8672 29.0561 38.6156C28.8225 38.3641 28.1576 38.3281 24.5998 38.3281C21.2756 38.3281 20.3592 38.382 20.1975 38.5797ZM27.5467 50.6367V61.3281H24.5819H21.617V50.6367V39.9453H24.5819H27.5467V50.6367Z" fill="white"/>
<path d="M20.1976 64.6344C20.0718 64.7781 19.9999 65.1195 20.0359 65.407L20.0898 65.9102H42.9999H65.9101L65.964 65.407C66.0898 64.3109 67.689 64.3828 42.9999 64.3828C23.5577 64.3828 20.3773 64.4188 20.1976 64.6344Z" fill="white"/>
</g>
<defs>
<clipPath id="clip0_19_1831">
<rect width="46" height="46" fill="white" transform="translate(20 20)"/>
</clipPath>
</defs>
</svg>
