<svg width="87" height="87" viewBox="0 0 87 87" fill="none" xmlns="http://www.w3.org/2000/svg">
<path d="M59.3027 5.50549C56.7199 6.45705 53.5934 8.97189 51.9961 11.4867L51.0445 12.9141L50.8066 11.3168C50.4668 8.9379 49.6852 7.54455 48.1559 6.52502C46.8984 5.67541 46.4906 5.60744 43.5 5.60744C40.5094 5.60744 40.1016 5.67541 38.8441 6.52502C37.2469 7.57853 36.4312 9.10783 36.0914 11.7586L35.8535 13.6957L32.625 15.0211C30.8578 15.7688 28.9887 16.5504 28.4789 16.7543C27.6293 17.0942 27.4254 17.0262 26.4398 16.0746C23.3133 13.152 20.2207 13.2199 16.8562 16.3125C13.2879 19.609 13.016 23.1774 16.0746 26.4399C17.0262 27.4254 17.0941 27.6293 16.7543 28.4789C16.5504 28.9887 15.8027 30.7559 15.123 32.4551C14.4094 34.1203 13.7637 35.6156 13.6277 35.7516C13.5258 35.8875 12.5062 36.0914 11.3848 36.1934C8.93789 36.4652 7.44258 37.3149 6.38906 39.0141C5.70937 40.1016 5.60742 40.7133 5.60742 43.534C5.60742 46.4906 5.67539 46.8984 6.525 48.1559C7.57852 49.7531 9.00586 50.5008 11.4867 50.7727C12.5062 50.8746 13.4238 51.0445 13.5598 51.1465C13.7297 51.2145 14.1715 52.268 14.6133 53.4235C15.0211 54.6129 15.7348 56.2781 16.1766 57.1617C16.6184 58.0453 16.9922 58.9289 16.9922 59.1328C16.9922 59.3027 16.4484 60.0504 15.8027 60.7641C13.118 63.7547 13.2879 66.8473 16.3125 70.1438C19.609 73.7121 23.1773 73.984 26.4398 70.9254C27.4254 69.9738 27.6293 69.9059 28.4789 70.2457C28.9887 70.4496 30.8578 71.2313 32.625 71.9789L35.8535 73.3043L36.1254 75.4793C36.4312 78.0281 37.2809 79.5574 39.0141 80.6109C40.1016 81.2906 40.7133 81.3926 43.534 81.3926C46.4906 81.3926 46.8984 81.3246 48.1559 80.475C49.7871 79.4215 50.6367 77.7902 50.8746 75.2074C51.0445 73.7461 51.2145 73.2703 51.7922 73.0664C52.2 72.8965 53.7633 72.2508 55.3266 71.6051L58.1133 70.4156V73.5082C58.1133 78.8777 60.0164 81.2567 64.6043 81.4945C67.527 81.6645 69.498 80.8149 70.8914 78.7758L71.877 77.3824L71.9789 55.7684L72.0469 34.1203L73.2363 33.5086C73.882 33.1688 75.0715 32.2172 75.9211 31.4016C83.0918 24.5367 82.0723 12.7442 73.848 7.10275C71.809 5.70939 69.7699 5.0297 68.9543 5.43752C68.3426 5.77736 68.3086 6.28712 68.3086 13.5938V21.4102L66.7113 22.2258L65.0801 23.0414L63.4828 22.2258L61.8516 21.4102V13.5938C61.8516 6.25314 61.8176 5.77736 61.2059 5.43752C60.832 5.26759 60.4922 5.09767 60.4242 5.13165C60.3562 5.13165 59.8805 5.30157 59.3027 5.50549ZM46.1848 9.00587C47.3062 9.58361 47.918 11.0109 47.918 13.118C47.918 14.1375 48.1559 14.8512 48.7336 15.5309C49.4813 16.4145 49.5492 16.8223 49.5152 19.4051C49.4813 20.9684 49.5832 22.8035 49.7191 23.4832L49.957 24.7067L47.85 24.2309C44.9613 23.5512 40.3055 23.7891 37.3828 24.8086C29.1926 27.5953 23.7891 34.9699 23.7891 43.3301C23.7891 50.093 26.8816 56.0742 32.2172 59.5746C39.8637 64.6383 49.2773 64.2985 56.1762 58.657L58.1133 57.0938V61.9875V66.8813L56.516 67.6969C55.5984 68.1727 53.8312 68.9203 52.5398 69.3621C51.1805 69.8039 49.6852 70.6535 49.0395 71.2313C48.0879 72.1149 47.918 72.5227 47.918 73.8141C47.918 77.1785 46.6605 78.5039 43.5 78.5039C40.3395 78.5039 39.082 77.1785 39.082 73.882C39.082 71.9449 37.9266 70.5856 35.5816 69.8039C34.5961 69.4981 32.9648 68.8184 31.9113 68.2746C29.7703 67.2211 27.9012 66.7793 26.7117 67.0852C26.2359 67.1871 25.1484 67.9008 24.2988 68.6484C22.0559 70.5856 21.1723 70.4836 18.8273 68.1727C16.5164 65.8277 16.4145 64.9442 18.3516 62.7012C19.0992 61.8516 19.8129 60.7641 19.9148 60.2883C20.2207 59.0988 19.7789 57.2297 18.7254 55.0887C18.1816 54.0352 17.502 52.4039 17.1961 51.4184C16.4145 49.0735 15.0551 47.918 13.118 47.918C9.82148 47.918 8.49609 46.6606 8.49609 43.5C8.49609 40.3395 9.82148 39.082 13.118 39.082C15.0551 39.082 16.4145 37.9266 17.1961 35.5816C17.502 34.5961 18.1816 32.9649 18.7254 31.9113C19.7789 29.7703 20.2207 27.9012 19.9148 26.7117C19.8129 26.236 19.0992 25.1484 18.3516 24.2988C16.4145 22.0559 16.5164 21.1723 18.8273 18.8274C21.1723 16.5164 22.0559 16.4145 24.2988 18.3516C25.1484 19.0992 26.2359 19.8129 26.7117 19.9149C27.9012 20.2207 29.7703 19.7789 31.9113 18.7254C32.9648 18.1817 34.5961 17.502 35.5816 17.1961C37.9266 16.4145 39.082 15.0551 39.082 13.118C39.082 11.0789 39.6937 9.58361 40.7473 9.00587C41.9027 8.36017 44.9613 8.36017 46.1848 9.00587ZM59.1328 23.5512C59.7785 24.1289 64.3664 26.168 65.0801 26.168C65.7937 26.168 70.3816 24.1289 71.0273 23.5512C71.1293 23.4492 71.2652 20.1867 71.3672 16.2445L71.5371 9.07384L73.4742 10.841C79.7613 16.5844 78.7078 26.7117 71.4352 30.9258C70.3137 31.5715 69.2941 32.4211 69.1922 32.7949C69.0902 33.1688 68.9883 43.0922 68.9883 54.8508V76.193L67.8328 77.3484C66.8473 78.334 66.4395 78.5039 65.0801 78.5039C63.7207 78.5039 63.3129 78.334 62.3273 77.3484L61.1719 76.193V54.8508C61.1719 43.0922 61.0699 33.1688 60.968 32.7949C60.866 32.4211 59.8465 31.5715 58.725 30.9258C54.9527 28.7848 52.6418 24.7746 52.6078 20.4246C52.5738 16.2445 53.7973 13.4238 56.8219 10.7051L58.623 9.07384L58.793 16.2445C58.8949 20.1867 59.0309 23.4492 59.1328 23.5512ZM49.4133 27.9012C50.8066 28.4449 52.0641 29.2945 53.5254 30.7559C54.6809 31.8774 56.2102 33.1008 56.8898 33.4746L58.1133 34.1543V42.8883V51.6223L56.516 53.7293C52.8457 58.5551 46.5926 60.968 40.7133 59.8465C32.4891 58.2492 26.8137 51.4524 26.8477 43.2281C26.8816 35.9895 32.1152 29.4305 39.4559 27.3574C42.0727 26.6438 46.7965 26.8817 49.4133 27.9012Z" fill="white"/>
</svg>
